<?xml version="1.0" encoding="UTF-8" standalone="no"?>
<!-- Generator: Adobe Illustrator 19.2.1, SVG Export Plug-In . SVG Version: 6.00 Build 0)  -->

<svg
   xmlns:dc="http://purl.org/dc/elements/1.1/"
   xmlns:cc="http://creativecommons.org/ns#"
   xmlns:rdf="http://www.w3.org/1999/02/22-rdf-syntax-ns#"
   xmlns:svg="http://www.w3.org/2000/svg"
   xmlns="http://www.w3.org/2000/svg"
   xmlns:sodipodi="http://sodipodi.sourceforge.net/DTD/sodipodi-0.dtd"
   xmlns:inkscape="http://www.inkscape.org/namespaces/inkscape"
   version="1.1"
   x="0px"
   y="0px"
   viewBox="0 0 150.5 144"
   style="enable-background:new 0 0 150.5 144;"
   xml:space="preserve"
   id="svg22"
   sodipodi:docname="map.svg"
   inkscape:version="0.92.1 r15371"><metadata
     id="metadata28"><rdf:RDF><cc:Work
         rdf:about=""><dc:format>image/svg+xml</dc:format><dc:type
           rdf:resource="http://purl.org/dc/dcmitype/StillImage" /></cc:Work></rdf:RDF></metadata><defs
     id="defs26" /><sodipodi:namedview
     pagecolor="#ffffff"
     bordercolor="#666666"
     borderopacity="1"
     objecttolerance="10"
     gridtolerance="10"
     guidetolerance="10"
     inkscape:pageopacity="0"
     inkscape:pageshadow="2"
     inkscape:window-width="1920"
     inkscape:window-height="1000"
     id="namedview24"
     showgrid="false"
     inkscape:zoom="52.444444"
     inkscape:cx="34.974027"
     inkscape:cy="69.937743"
     inkscape:window-x="-11"
     inkscape:window-y="-11"
     inkscape:window-maximized="1"
     inkscape:current-layer="svg22" /><style
     type="text/css"
     id="style2">
	.st0{display:none;}
	.st1{display:inline;}
	.st2{fill:#FFFFFF;}
	.st3{opacity:0.4;fill:url(#SVGID_1_);}
	.st4{fill:#9B9B9B;}
</style><g
     id="Layer_3"
     class="st0"><rect
       x="-19"
       y="-34.5"
       class="st1"
       width="188.2"
       height="169"
       id="rect4" /></g><g
     id="Layer_1"><g
       id="g9"><polygon
         class="st2"
         points="57.2,6.7 57.3,6.6 57.3,6.2 57.3,5.5 57.7,5.1 58.3,5.1 58.9,5.4 59.3,5.8 59.4,6.4 59.2,6.8     58.8,7.1 58.5,7.4 58.5,8 58.7,8.1 59.2,8 59.7,7.9 59.9,8 60.2,7.9 60.4,7.8 60.6,7.6 60.8,7.4 61,7.6 61.4,8.1 62.9,8.7     63.4,9.1 63.6,9.3 63.8,9.4 63.4,9.6 63.3,9.7 63.1,9.8 62.9,9.9 62.6,10.3 62.9,10.5 63,10.8 63.1,11.2 63.3,11.5 63.4,11.6     63.5,11.7 63.4,11.9 63.3,12 63,12.5 62.8,13.3 62.9,14.1 63.3,14.4 64,14.6 64.3,14.7 64.4,15.1 64.4,15.5 65,17.6 64.9,17.9     64.6,18.5 64.5,18.8 64.9,18.4 65.2,18.1 65.5,18.2 65.9,18.6 66,18.9 66.1,19.2 66,19.5 65.8,19.8 65.8,19.9 65.4,21.2     65.3,22.4 65.6,23.7 66.3,24.9 67,25.9 67.3,26.4 68.1,27.4 67.7,28.1 67.4,29.2 67.5,30.2 68.1,30.9 67.8,31.2 67.5,31.6     67.4,32 67.2,32.8 67,33.2 66.5,33.8 66.6,34.2 66.3,34.8 65.7,35.8 65,36.3 64.8,36.6 64.6,37 64.6,37.4 64.5,37.7 64.4,38     64,38.3 64.1,38.4 64.1,38.4 64.4,38.3 65.3,37.4 65.6,36.9 66.2,38 66.5,38.3 67,37.6 67.1,37.5 67.3,37.4 67.4,37.1 67.5,37     67.7,37 68.2,36.9 68.7,37 68.9,37.1 69.1,37.2 69.3,37.5 69.6,38.1 69.7,38.3 70.2,38.4 71.2,38.1 71.7,38.2 72.1,38.8     72.5,40.6 73.3,41.3 73.4,41.3 74.1,41.3 74.3,41.4 74.3,42 74.5,42.1 75.1,42.4 75.2,42.8 74.9,43.9 75.3,43.6 75.5,43.5     75.7,43.4 76.1,43.3 76.5,43.2 76.9,42.9 77.3,42.6 77.7,42.4 78.2,42.4 78.4,42.3 79.1,42.1 79.2,42.1 79.3,41.6 79.5,41.5     79.8,41.7 79.9,41 80.3,41.2 80.9,42.1 81.3,42.1 82.6,41.6 82.9,41.4 83.1,40.8 83,40.2 82.7,39.7 82.7,39.2 82.8,38.9     83.1,38.4 83.6,37.8 83.9,37.6 84.4,37.5 84.7,37.2 84.8,37 84.8,36.3 84.9,36.1 85.1,35.9 85.9,35.4 86.4,34.9 86.7,34.3     86.8,33.7 86.8,33 86.7,32.9 86.6,32.9 86.5,32.8 86.4,32.6 86.5,32.4 86.7,32.1 86.7,32 86.8,31 87,30.3 87.8,29.4 88,28.8     91.6,29 91.4,30.1 91.6,30.9 92.1,31.6 93.1,32.3 94,32.8 95.3,33.5 95.8,34.5 96.4,36.6 96.8,39.5 96.9,40.1 97.1,40.5     97.6,41.2 97.8,41.6 98.1,42.5 98.2,42.7 98.6,43.2 98.7,43.4 98.7,43.6 98.6,44 98.7,44.2 98.8,44.4 99.2,44.8 99.4,45.1     99.5,45.4 99.5,46.1 100,49 100,49.7 99.7,50 99.1,50.4 99,50.7 98.9,51.2 99,51.7 99,52.2 98.6,53 98.7,53.2 99,53.4 99.1,53.6     99.1,54 99.1,54.4 98.8,55.3 98.5,56.2 98,56.8 95.4,59.8 94.8,60.5 92.6,62.2 92.2,62.7 92.2,62.7 91.7,62.9 91.6,63 91.7,63     91.5,63.4 91.5,63.5 91.3,63.6 91,63.7 90.8,63.7 90.1,64.7 90.6,64.7 90.9,64.8 91.6,64.7 91.9,64.9 92.3,65.1 93.2,66.3     93.7,66.5 94.1,66.2 94.3,65.7 94.5,65.1 94.6,64.9 94.8,65 95.1,65.4 96.1,65.9 96.5,66.4 96.4,66.5 96.2,66.7 96.1,67.2     96.1,67.5 96.4,68 96.5,68.3 96.3,68.5 96,68.7 95.9,68.9 96.3,69.2 96.6,68.9 97,68.8 97.3,68.8 97.6,68.9 98,68.6 98.3,68.7     98.6,69.1 99,69.3 99.1,69.3 99.2,69.2 99.3,69.1 99.5,69.2 99.7,69.5 99.7,69.7 99.7,69.9 99.8,70 100,70.1 102.4,70.6     102.7,70.8 103,71 103.2,71.1 103.5,71.2 104,71.2 104.4,71.1 105.1,70.7 105.4,70.6 106.8,70.4 107.6,70.4 108.1,70.5     108.6,70.8 110.5,71.2 110.7,71.3 110.8,71.2 111,71.2 111.2,71.2 111.2,71.3 111.3,71.7 111.4,71.8 112.7,72.9 113.2,73.4     113.3,73.9 112.9,75 112.7,75.6 112.7,76.3 112.7,76.9 113.1,77.3 113.1,77.2 113.4,77 113.7,76.9 114,77 114.3,77.2 114.4,77.5     114.5,78.2 114.6,78.3 114.8,78.3 114.9,78.4 115,78.6 114.9,78.7 114.7,78.9 114.6,79 114.6,79.9 114.6,80.1 115,80.6     116.2,81.2 116.5,81.6 117.1,82.3 117.5,82.1 117.8,81.5 118.2,81.1 118.4,81.3 118.7,81.6 119.1,82 119.7,82.1 119.7,82.2     120.3,82.5 120.4,82.5 121.1,82.8 121.2,83 121,83.3 121.2,83.5 121.6,84 121.8,84.1 122.2,83.9 122.5,83.6 122.7,83.5 122.7,84     123.1,84.1 123.3,84.5 123.5,84.9 123.8,85.1 124,84.9 124.1,84.4 124.2,83.5 125.2,83.9 125.3,85 125.1,86.2 125.1,87.3     125.7,89.6 126.1,90.4 126.7,91.7 127.1,92.2 126.4,92.1 126.2,92.4 126.4,93 126.8,93.5 126.2,93.6 126,93.6 126.3,93.9     126.4,93.9 126.2,94.1 125.9,94.4 125.6,94.9 125.7,96 125.5,96.3 125.1,96.1 125.1,96.6 125.2,97.1 125.4,97.6 125.7,98     126.2,98.3 126.5,98.2 126.7,98.2 126.9,98.8 127,99.4 126.9,99.7 126.8,100 126.4,100.5 126.3,100.7 126.2,101.2 126.1,101.4     125.8,101.5 125.7,101.4 125.7,101.2 125.6,101 125.6,100.9 125.7,100.7 125.8,100.6 125.4,100.5 125.4,100.6 124.6,101     124.4,101.3 124.2,101.6 123.9,102.5 124.2,104 124.2,104.5 124,105 123.2,106.5 122.8,106.3 122.3,106.3 121.8,106.5     121.4,107.1 121.3,107.6 121.6,109.3 121.6,109.3 121.5,109.9 121.7,110.3 122,110.7 122.2,111.3 122.2,111.8 122.1,111.8     121.8,111.6 121.4,111.5 120.5,112.3 120.5,112.6 120.7,113.5 120.7,113.8 120.5,114.4 120.5,114.7 120.5,114.7 120.7,115     120.9,115.2 121.1,115.4 121.3,115.7 121.4,115.9 121.5,117.5 121.4,123.9 121.4,124.1 121.5,124.4 121.6,124.7 121.5,125.5     121.7,126.1 121.8,126.4 121.7,126.6 121.4,127.2 121.3,127.5 121.5,127.8 122.5,128.5 122.5,128.5 120.9,128.7 120.5,128.6     119.8,128.3 119.4,128.3 117.3,128.3 117.1,128.2 117,128 116.9,127.8 116.7,127.7 116.2,127.6 115.1,127.2 114.7,127     114.3,126.7 114.2,126.3 114,125.9 113.7,125.6 112.8,125.3 112.1,124.8 111.8,124.6 111.3,124.6 111,124.4 110.7,124.2     110.5,124 109.9,123.8 108.6,123.5 107.6,123.3 105.7,122.6 102.1,122.2 101,121.8 99.7,120.4 99.2,120.2 98.7,120 95.6,118.9     92.2,116.6 90.5,115.6 86.3,114.1 85.4,113.6 83.3,111.9 82.5,111.4 81.6,111 81.3,110.9 80.6,110.6 79.7,110.5 79,110.3     78.3,109.9 77.8,109.6 77.9,109.5 77.9,109.5 77.9,109.4 78,109.3 76.6,109 75.6,108.4 73.9,106.9 73.4,106.6 72.3,106.1     71.4,105.4 70.9,105.2 70.4,104.9 70,104.4 70.4,104.4 70,103.9 69.4,103.5 68.7,103.3 68.1,103 64.6,99.7 64.4,99.3 64.1,98.2     63.8,97.7 63.5,97.4 63,97 62.5,96.8 62,96.6 62,96.6 61.1,96.4 60.9,96.4 60.9,96.2 61.3,95.7 61.3,95.4 60.8,94.7 57.9,93     53.5,88.8 49.4,85.4 48.3,84.2 48.1,84.1 47.6,83.8 47.4,83.5 47.3,83.2 47.4,82.9 47.4,82.5 47.1,82.1 46.7,81.7 46.1,81.4     45.7,81.3 45.3,81.1 43.2,79.4 42,78.1 40.4,77.1 39.9,76.9 38.7,76.6 38.2,76.3 37.9,75.9 38,75.5 38.3,75.7 38.5,75.7     38.7,75.6 38.8,75.3 38.2,75.2 37.8,74.9 37.4,74.5 37,74.1 36,73.5 35.5,73.3 34.9,73.3 34.9,73.5 36.5,74.3 37.2,74.8     37.4,75.5 36.9,75 36.1,74.5 35.1,74.1 29.1,72.6 25.2,70.6 24.6,70.1 24.9,69.6 25,69.8 25.2,70 25.4,70.1 25.7,70.2 25.2,69.4     25.1,68.6 25.4,68 26.1,67.3 25.7,67.3 25.4,67.4 25.1,67.5 24.9,67.7 24.2,66.3 23.2,65.2 22,64.5 17.3,61.9 12,60 8.4,58.4     7.8,57.6 7.7,56.4 7.9,55.7 7.9,55.5 8,55.1 7.6,54.3 7.4,54.2 6.9,54 6.3,53.6 5.8,53.2 5.5,52.9 4.8,51.8 5.7,51.4 5.9,51.3     5.9,50.5 6,50 6.8,49.5 7.1,49.1 7.3,48.5 7.4,48 7.3,47.4 7.4,47.2 8,47.2 8.2,47.1 8.4,46.9 8.4,46.7 8.3,46.3 7.9,45.6     7.9,45.3 7.9,45.2 8.5,44.7 9.5,43.1 10,43 12.5,41.9 12.8,41.6 14.7,39.1 15.2,38.5 19.7,35 20.9,34.3 22,34 22.4,33.9     22.8,33.6 23.1,33.2 27.1,28.4 28.2,27.5 29.6,26.7 29.8,26.6 30.5,26.5 30.5,19.3 30.5,19 30.6,18.7 30.9,18.5 31.7,18 32,17.7     32.7,16.5 33.1,15.9 33.8,15.6 34.4,15.5 36.8,15.5 37.4,15.4 38,15.2 38.6,14.9 39.3,14.2 39.4,13.6 39.2,13 39,12.2 39,11.5     39.5,10.4 40.5,6.7 40.5,5.2 40.8,5.2 41.1,5.1 41.7,4.9 42,5.4 42.5,5.1 43.5,4.1 44,4 44.5,4 46.2,4.4 46.6,4.7 46.8,5.1     46.5,6.5 46.7,6.9 47,7 47.7,6.9 48.9,6.2 50,5.3 50.5,5.1 51,4.9 51.5,4.9 52.1,4.8 52.2,4.8 52.7,4.7 52.8,4.8 52.9,4.9     53.1,5.1 53.4,5 53.9,4.8 54.6,4.5 54.7,4.3 54.6,4.1 54.6,3.9 54.8,3.6 55,3.4 55.1,3.2 55.1,2.8 55.6,2.8 55.9,3.2 56.1,3.7     56.3,5.2 56.4,5.7 56.7,6.2   "
         id="polygon7" /></g></g><g
     id="Layer_2"><radialGradient
       id="SVGID_1_"
       cx="29.3854"
       cy="69.9688"
       r="17.2188"
       gradientUnits="userSpaceOnUse"><stop
         offset="4.306916e-007"
         style="stop-color:#DDDDDD;stop-opacity:0"
         id="stop12" /><stop
         offset="1"
         style="stop-color:#DDDDDD"
         id="stop14" /></radialGradient><circle
       class="st3"
       cx="29.4"
       cy="70"
       r="17.2"
       id="circle17" /><circle
       class="st4"
       cx="29.7"
       cy="70.3"
       r="1"
       id="circle19" /></g><circle
     style="fill:#d40000"
     id="path3700"
     cx="29.698093"
     cy="70.293434"
     r="1.0010593" /></svg>